<svg version="1.1" xmlns="http://www.w3.org/2000/svg" xmlns:xlink="http://www.w3.org/1999/xlink" width="800px" height="800px" viewBox="0,0,256,256"><g fill="none" fill-rule="nonzero" stroke="#c7e1ff" stroke-width="2" stroke-linecap="round" stroke-linejoin="round" stroke-miterlimit="10" stroke-dasharray="" stroke-dashoffset="0" font-family="none" font-weight="none" font-size="none" text-anchor="none" style="mix-blend-mode: normal"><g transform="scale(10.66667,10.66667)"><path d="M6.29977,5h14.70023l-2,7h-11.62329M20,16h-12l-2,-13h-3M9,20c0,0.5523 -0.44772,1 -1,1c-0.55228,0 -1,-0.4477 -1,-1c0,-0.5523 0.44772,-1 1,-1c0.55228,0 1,0.4477 1,1zM20,20c0,0.5523 -0.4477,1 -1,1c-0.5523,0 -1,-0.4477 -1,-1c0,-0.5523 0.4477,-1 1,-1c0.5523,0 1,0.4477 1,1z"></path></g></g></svg>