<svg version="1.1" xmlns="http://www.w3.org/2000/svg" xmlns:xlink="http://www.w3.org/1999/xlink" width="50px" height="50px" viewBox="0,0,256,256"><g fill="#c7e1ff" fill-rule="nonzero" stroke="none" stroke-width="1" stroke-linecap="butt" stroke-linejoin="miter" stroke-miterlimit="10" stroke-dasharray="" stroke-dashoffset="0" font-family="none" font-weight="none" font-size="none" text-anchor="none" style="mix-blend-mode: normal"><g transform="scale(5.12,5.12)"><path d="M14,5c-4.963,0 -9,4.038 -9,9v22c0,4.963 4.037,9 9,9h22c4.963,0 9,-4.037 9,-9v-22c0,-4.962 -4.037,-9 -9,-9zM14,14h22v22h-22zM16,16v18h18v-18zM20,18.01172h2v1.98828c0,1.654 1.346,3 3,3c1.654,0 3,-1.346 3,-3v-1.95703h2v1.95703c0,2.757 -2.243,5 -5,5c-2.757,0 -5,-2.243 -5,-5zM29.89844,28.00195l0.65234,1.32031l1.45508,0.21094l-1.05469,1.02734l0.25195,1.45117l-1.30273,-0.68555l-1.30273,0.68555l0.24805,-1.45117l-1.05273,-1.02734l1.45508,-0.21094z"></path></g></g></svg>